<mxfile host="app.diagrams.net" modified="2024-02-20T02:09:11.601Z" agent="Mozilla/5.0 (Macintosh; Intel Mac OS X 10_15_7) AppleWebKit/605.1.15 (KHTML, like Gecko) Version/17.2.1 Safari/605.1.15" etag="wzZCsKgbrcop7vyG4b9x" version="23.1.5" type="github">
  <diagram name="Page-1" id="DcrCZiUILAWyvLdlsN3J">
    <mxGraphModel dx="2054" dy="-1433" grid="1" gridSize="10" guides="1" tooltips="1" connect="1" arrows="1" fold="1" page="1" pageScale="1" pageWidth="850" pageHeight="1100" math="0" shadow="0">
      <root>
        <mxCell id="0" />
        <mxCell id="1" parent="0" />
        <mxCell id="JNC51Iq2SX0TN4YdI0RO-1" value="" style="rounded=1;whiteSpace=wrap;html=1;dashed=1;fillColor=#f5f5f5;fontColor=#333333;strokeColor=#666666;" vertex="1" parent="1">
          <mxGeometry x="-610" y="4170" width="1080" height="580" as="geometry" />
        </mxCell>
        <mxCell id="JNC51Iq2SX0TN4YdI0RO-2" value="" style="rounded=1;whiteSpace=wrap;html=1;fillColor=#dae8fc;strokeColor=#6c8ebf;dashed=1;" vertex="1" parent="1">
          <mxGeometry x="-230" y="3140" width="320" height="140" as="geometry" />
        </mxCell>
        <mxCell id="JNC51Iq2SX0TN4YdI0RO-3" value="Web" style="rounded=0;whiteSpace=wrap;html=1;" vertex="1" parent="1">
          <mxGeometry x="-207" y="3190" width="77" height="60" as="geometry" />
        </mxCell>
        <mxCell id="JNC51Iq2SX0TN4YdI0RO-4" value="Mobile" style="rounded=0;whiteSpace=wrap;html=1;" vertex="1" parent="1">
          <mxGeometry x="-105.5" y="3190" width="77" height="60" as="geometry" />
        </mxCell>
        <mxCell id="JNC51Iq2SX0TN4YdI0RO-5" value="&lt;font style=&quot;font-size: 18px;&quot;&gt;Client&lt;/font&gt;" style="text;html=1;strokeColor=none;fillColor=none;align=center;verticalAlign=middle;whiteSpace=wrap;rounded=0;" vertex="1" parent="1">
          <mxGeometry x="-97" y="3150" width="60" height="30" as="geometry" />
        </mxCell>
        <mxCell id="JNC51Iq2SX0TN4YdI0RO-6" value="PC" style="rounded=0;whiteSpace=wrap;html=1;" vertex="1" parent="1">
          <mxGeometry x="-10" y="3190" width="77" height="60" as="geometry" />
        </mxCell>
        <mxCell id="JNC51Iq2SX0TN4YdI0RO-7" value="" style="rounded=1;whiteSpace=wrap;html=1;dashed=1;" vertex="1" parent="1">
          <mxGeometry x="-610" y="3440" width="760" height="550" as="geometry" />
        </mxCell>
        <mxCell id="JNC51Iq2SX0TN4YdI0RO-8" value="Parameter &lt;br&gt;Validator" style="rounded=1;whiteSpace=wrap;html=1;fillColor=#d5e8d4;strokeColor=#82b366;" vertex="1" parent="1">
          <mxGeometry x="-546" y="3507" width="120" height="60" as="geometry" />
        </mxCell>
        <mxCell id="JNC51Iq2SX0TN4YdI0RO-9" value="Allow-list/&lt;br&gt;Deny-list" style="rounded=1;whiteSpace=wrap;html=1;fillColor=#d5e8d4;strokeColor=#82b366;" vertex="1" parent="1">
          <mxGeometry x="-345" y="3507" width="120" height="60" as="geometry" />
        </mxCell>
        <mxCell id="JNC51Iq2SX0TN4YdI0RO-10" value="Authentication&lt;br&gt;Authorization&lt;span style=&quot;white-space: pre;&quot;&gt;&#x9;&lt;/span&gt;" style="rounded=1;whiteSpace=wrap;html=1;fillColor=#d5e8d4;strokeColor=#82b366;" vertex="1" parent="1">
          <mxGeometry x="-157" y="3507" width="120" height="60" as="geometry" />
        </mxCell>
        <mxCell id="JNC51Iq2SX0TN4YdI0RO-11" value="Rate Limit" style="rounded=1;whiteSpace=wrap;html=1;fillColor=#d5e8d4;strokeColor=#82b366;" vertex="1" parent="1">
          <mxGeometry x="-157" y="3643" width="120" height="60" as="geometry" />
        </mxCell>
        <mxCell id="JNC51Iq2SX0TN4YdI0RO-12" value="Identity &lt;br&gt;Provider" style="rounded=1;whiteSpace=wrap;html=1;fillColor=#e1d5e7;strokeColor=#9673a6;" vertex="1" parent="1">
          <mxGeometry x="220" y="3507" width="120" height="60" as="geometry" />
        </mxCell>
        <mxCell id="JNC51Iq2SX0TN4YdI0RO-13" value="" style="endArrow=classic;startArrow=classic;html=1;rounded=0;entryX=0;entryY=0.5;entryDx=0;entryDy=0;" edge="1" parent="1" source="JNC51Iq2SX0TN4YdI0RO-10" target="JNC51Iq2SX0TN4YdI0RO-12">
          <mxGeometry width="50" height="50" relative="1" as="geometry">
            <mxPoint x="350" y="3580" as="sourcePoint" />
            <mxPoint x="400" y="3530" as="targetPoint" />
          </mxGeometry>
        </mxCell>
        <mxCell id="JNC51Iq2SX0TN4YdI0RO-14" value="" style="endArrow=classic;html=1;rounded=0;entryX=0.5;entryY=0;entryDx=0;entryDy=0;edgeStyle=orthogonalEdgeStyle;curved=1;exitX=0.5;exitY=1;exitDx=0;exitDy=0;" edge="1" parent="1" source="JNC51Iq2SX0TN4YdI0RO-2" target="JNC51Iq2SX0TN4YdI0RO-8">
          <mxGeometry width="50" height="50" relative="1" as="geometry">
            <mxPoint x="-120" y="3400" as="sourcePoint" />
            <mxPoint x="-70" y="3350" as="targetPoint" />
          </mxGeometry>
        </mxCell>
        <mxCell id="JNC51Iq2SX0TN4YdI0RO-15" value="Http Request" style="shape=message;html=1;html=1;outlineConnect=0;labelPosition=center;verticalLabelPosition=bottom;align=center;verticalAlign=top;strokeColor=#66B2FF;" vertex="1" parent="1">
          <mxGeometry x="-80" y="3340" width="40" height="30" as="geometry" />
        </mxCell>
        <mxCell id="JNC51Iq2SX0TN4YdI0RO-16" value="" style="endArrow=classic;html=1;rounded=0;exitX=1;exitY=0.5;exitDx=0;exitDy=0;" edge="1" parent="1" source="JNC51Iq2SX0TN4YdI0RO-8" target="JNC51Iq2SX0TN4YdI0RO-9">
          <mxGeometry width="50" height="50" relative="1" as="geometry">
            <mxPoint x="-420" y="3537" as="sourcePoint" />
            <mxPoint x="-380" y="3490" as="targetPoint" />
          </mxGeometry>
        </mxCell>
        <mxCell id="JNC51Iq2SX0TN4YdI0RO-17" value="" style="endArrow=classic;html=1;rounded=0;" edge="1" parent="1" source="JNC51Iq2SX0TN4YdI0RO-9" target="JNC51Iq2SX0TN4YdI0RO-10">
          <mxGeometry width="50" height="50" relative="1" as="geometry">
            <mxPoint x="-230" y="3540" as="sourcePoint" />
            <mxPoint x="-180" y="3490" as="targetPoint" />
          </mxGeometry>
        </mxCell>
        <mxCell id="JNC51Iq2SX0TN4YdI0RO-18" value="" style="endArrow=classic;html=1;rounded=0;exitX=0.5;exitY=1;exitDx=0;exitDy=0;" edge="1" parent="1" source="JNC51Iq2SX0TN4YdI0RO-10" target="JNC51Iq2SX0TN4YdI0RO-11">
          <mxGeometry width="50" height="50" relative="1" as="geometry">
            <mxPoint x="-80" y="3630" as="sourcePoint" />
            <mxPoint x="-30" y="3580" as="targetPoint" />
          </mxGeometry>
        </mxCell>
        <mxCell id="JNC51Iq2SX0TN4YdI0RO-19" value="Dynamic Routing" style="rounded=1;whiteSpace=wrap;html=1;fillColor=#d5e8d4;strokeColor=#82b366;" vertex="1" parent="1">
          <mxGeometry x="-345" y="3642" width="120" height="60" as="geometry" />
        </mxCell>
        <mxCell id="JNC51Iq2SX0TN4YdI0RO-20" value="" style="endArrow=classic;html=1;rounded=0;" edge="1" parent="1" source="JNC51Iq2SX0TN4YdI0RO-11" target="JNC51Iq2SX0TN4YdI0RO-19">
          <mxGeometry width="50" height="50" relative="1" as="geometry">
            <mxPoint x="-200" y="3680" as="sourcePoint" />
            <mxPoint x="-150" y="3630" as="targetPoint" />
          </mxGeometry>
        </mxCell>
        <mxCell id="JNC51Iq2SX0TN4YdI0RO-21" value="Service Discovery" style="rounded=1;whiteSpace=wrap;html=1;fillColor=#d5e8d4;strokeColor=#82b366;" vertex="1" parent="1">
          <mxGeometry x="-547.5" y="3640" width="120" height="60" as="geometry" />
        </mxCell>
        <mxCell id="JNC51Iq2SX0TN4YdI0RO-22" value="" style="endArrow=classic;html=1;rounded=0;exitX=0;exitY=0.5;exitDx=0;exitDy=0;" edge="1" parent="1" source="JNC51Iq2SX0TN4YdI0RO-19" target="JNC51Iq2SX0TN4YdI0RO-21">
          <mxGeometry width="50" height="50" relative="1" as="geometry">
            <mxPoint x="-360" y="3630" as="sourcePoint" />
            <mxPoint x="-310" y="3580" as="targetPoint" />
          </mxGeometry>
        </mxCell>
        <mxCell id="JNC51Iq2SX0TN4YdI0RO-23" value="Protocol&amp;nbsp;&lt;br&gt;Conversion" style="rounded=1;whiteSpace=wrap;html=1;fillColor=#d5e8d4;strokeColor=#82b366;" vertex="1" parent="1">
          <mxGeometry x="-546" y="3770" width="120" height="60" as="geometry" />
        </mxCell>
        <mxCell id="JNC51Iq2SX0TN4YdI0RO-24" value="" style="endArrow=classic;html=1;rounded=0;entryX=0.5;entryY=0;entryDx=0;entryDy=0;" edge="1" parent="1" source="JNC51Iq2SX0TN4YdI0RO-21" target="JNC51Iq2SX0TN4YdI0RO-23">
          <mxGeometry width="50" height="50" relative="1" as="geometry">
            <mxPoint x="-560" y="3750" as="sourcePoint" />
            <mxPoint x="-510" y="3700" as="targetPoint" />
          </mxGeometry>
        </mxCell>
        <mxCell id="JNC51Iq2SX0TN4YdI0RO-25" value="Error Handling" style="rounded=1;whiteSpace=wrap;html=1;fillColor=#f8cecc;strokeColor=#b85450;" vertex="1" parent="1">
          <mxGeometry x="-345" y="3761" width="120" height="60" as="geometry" />
        </mxCell>
        <mxCell id="JNC51Iq2SX0TN4YdI0RO-26" value="Circut Break" style="rounded=1;whiteSpace=wrap;html=1;fillColor=#f8cecc;strokeColor=#b85450;" vertex="1" parent="1">
          <mxGeometry x="-157" y="3760" width="120" height="60" as="geometry" />
        </mxCell>
        <mxCell id="JNC51Iq2SX0TN4YdI0RO-27" value="Logging&amp;nbsp;&lt;br&gt;Monitoring" style="rounded=1;whiteSpace=wrap;html=1;fillColor=#f8cecc;strokeColor=#b85450;" vertex="1" parent="1">
          <mxGeometry x="-345" y="3880" width="120" height="60" as="geometry" />
        </mxCell>
        <mxCell id="JNC51Iq2SX0TN4YdI0RO-28" value="Analytics" style="rounded=1;whiteSpace=wrap;html=1;fillColor=#f8cecc;strokeColor=#b85450;" vertex="1" parent="1">
          <mxGeometry x="-157" y="3880" width="120" height="60" as="geometry" />
        </mxCell>
        <mxCell id="JNC51Iq2SX0TN4YdI0RO-29" value="s" style="rounded=1;whiteSpace=wrap;html=1;dashed=1;" vertex="1" parent="1">
          <mxGeometry x="-580" y="4220" width="390" height="470" as="geometry" />
        </mxCell>
        <mxCell id="JNC51Iq2SX0TN4YdI0RO-30" value="REST API" style="swimlane;whiteSpace=wrap;html=1;fillColor=#dae8fc;strokeColor=#6c8ebf;" vertex="1" parent="1">
          <mxGeometry x="-556" y="4260" width="146" height="140" as="geometry" />
        </mxCell>
        <mxCell id="JNC51Iq2SX0TN4YdI0RO-31" value="REST API" style="swimlane;whiteSpace=wrap;html=1;fillColor=#dae8fc;strokeColor=#6c8ebf;" vertex="1" parent="1">
          <mxGeometry x="-377" y="4260" width="146" height="140" as="geometry" />
        </mxCell>
        <mxCell id="JNC51Iq2SX0TN4YdI0RO-32" value="Inventory Service" style="text;html=1;strokeColor=none;fillColor=none;align=center;verticalAlign=middle;whiteSpace=wrap;rounded=0;" vertex="1" parent="JNC51Iq2SX0TN4YdI0RO-31">
          <mxGeometry x="-5" y="70" width="135" height="30" as="geometry" />
        </mxCell>
        <mxCell id="JNC51Iq2SX0TN4YdI0RO-33" value="REST API" style="swimlane;whiteSpace=wrap;html=1;fillColor=#dae8fc;strokeColor=#6c8ebf;" vertex="1" parent="1">
          <mxGeometry x="-462" y="4440" width="146" height="140" as="geometry" />
        </mxCell>
        <mxCell id="JNC51Iq2SX0TN4YdI0RO-34" value="Payments Service" style="text;html=1;strokeColor=none;fillColor=none;align=center;verticalAlign=middle;whiteSpace=wrap;rounded=0;" vertex="1" parent="JNC51Iq2SX0TN4YdI0RO-33">
          <mxGeometry x="-8" y="55" width="135" height="30" as="geometry" />
        </mxCell>
        <mxCell id="JNC51Iq2SX0TN4YdI0RO-35" value="" style="rounded=1;whiteSpace=wrap;html=1;dashed=1;" vertex="1" parent="1">
          <mxGeometry x="-160" y="4220" width="280" height="470" as="geometry" />
        </mxCell>
        <mxCell id="JNC51Iq2SX0TN4YdI0RO-36" value="REST API" style="swimlane;whiteSpace=wrap;html=1;fillColor=#dae8fc;strokeColor=#6c8ebf;" vertex="1" parent="1">
          <mxGeometry x="-98" y="4260" width="146" height="140" as="geometry" />
        </mxCell>
        <mxCell id="JNC51Iq2SX0TN4YdI0RO-37" value="Clients Service" style="text;html=1;strokeColor=none;fillColor=none;align=center;verticalAlign=middle;whiteSpace=wrap;rounded=0;" vertex="1" parent="JNC51Iq2SX0TN4YdI0RO-36">
          <mxGeometry x="-4" y="70" width="135" height="30" as="geometry" />
        </mxCell>
        <mxCell id="JNC51Iq2SX0TN4YdI0RO-38" value="REST API" style="swimlane;whiteSpace=wrap;html=1;fillColor=#dae8fc;strokeColor=#6c8ebf;" vertex="1" parent="1">
          <mxGeometry x="-97" y="4430" width="146" height="140" as="geometry" />
        </mxCell>
        <mxCell id="JNC51Iq2SX0TN4YdI0RO-39" value="User Domain" style="text;html=1;strokeColor=none;fillColor=none;align=center;verticalAlign=middle;whiteSpace=wrap;rounded=0;" vertex="1" parent="1">
          <mxGeometry x="-91.5" y="4646" width="135" height="30" as="geometry" />
        </mxCell>
        <mxCell id="JNC51Iq2SX0TN4YdI0RO-40" value="Orders Domain" style="text;html=1;strokeColor=none;fillColor=none;align=center;verticalAlign=middle;whiteSpace=wrap;rounded=0;" vertex="1" parent="1">
          <mxGeometry x="-465.5" y="4646" width="135" height="30" as="geometry" />
        </mxCell>
        <mxCell id="JNC51Iq2SX0TN4YdI0RO-41" value="" style="endArrow=classic;html=1;rounded=0;exitX=0.5;exitY=1;exitDx=0;exitDy=0;entryX=0.476;entryY=-0.002;entryDx=0;entryDy=0;entryPerimeter=0;edgeStyle=orthogonalEdgeStyle;curved=1;" edge="1" parent="1" source="JNC51Iq2SX0TN4YdI0RO-23" target="JNC51Iq2SX0TN4YdI0RO-29">
          <mxGeometry width="50" height="50" relative="1" as="geometry">
            <mxPoint x="-520" y="4160" as="sourcePoint" />
            <mxPoint x="-470" y="4110" as="targetPoint" />
          </mxGeometry>
        </mxCell>
        <mxCell id="JNC51Iq2SX0TN4YdI0RO-42" value="Orders Service" style="text;html=1;strokeColor=none;fillColor=none;align=center;verticalAlign=middle;whiteSpace=wrap;rounded=0;" vertex="1" parent="1">
          <mxGeometry x="-553.5" y="4330" width="135" height="30" as="geometry" />
        </mxCell>
        <mxCell id="JNC51Iq2SX0TN4YdI0RO-43" value="Employments&lt;br&gt;&amp;nbsp;Service" style="text;html=1;strokeColor=none;fillColor=none;align=center;verticalAlign=middle;whiteSpace=wrap;rounded=0;" vertex="1" parent="1">
          <mxGeometry x="-98" y="4485" width="135" height="30" as="geometry" />
        </mxCell>
        <mxCell id="JNC51Iq2SX0TN4YdI0RO-44" value="DB Tenants" style="shape=cylinder3;whiteSpace=wrap;html=1;boundedLbl=1;backgroundOutline=1;size=15;fillColor=#d5e8d4;strokeColor=#82b366;" vertex="1" parent="1">
          <mxGeometry x="-50" y="4789" width="60" height="80" as="geometry" />
        </mxCell>
        <mxCell id="JNC51Iq2SX0TN4YdI0RO-45" value="DB &lt;br&gt;Orders" style="shape=cylinder3;whiteSpace=wrap;html=1;boundedLbl=1;backgroundOutline=1;size=15;fillColor=#d5e8d4;strokeColor=#82b366;" vertex="1" parent="1">
          <mxGeometry x="-415.5" y="4789" width="60" height="80" as="geometry" />
        </mxCell>
        <mxCell id="JNC51Iq2SX0TN4YdI0RO-46" value="" style="endArrow=classic;html=1;rounded=0;exitX=0.5;exitY=1;exitDx=0;exitDy=0;entryX=0.5;entryY=0;entryDx=0;entryDy=0;entryPerimeter=0;" edge="1" parent="1" source="JNC51Iq2SX0TN4YdI0RO-35" target="JNC51Iq2SX0TN4YdI0RO-44">
          <mxGeometry width="50" height="50" relative="1" as="geometry">
            <mxPoint x="200" y="4820" as="sourcePoint" />
            <mxPoint x="250" y="4770" as="targetPoint" />
          </mxGeometry>
        </mxCell>
        <mxCell id="JNC51Iq2SX0TN4YdI0RO-47" value="" style="endArrow=classic;html=1;rounded=0;exitX=0.5;exitY=1;exitDx=0;exitDy=0;entryX=0.5;entryY=0;entryDx=0;entryDy=0;entryPerimeter=0;" edge="1" parent="1" source="JNC51Iq2SX0TN4YdI0RO-29" target="JNC51Iq2SX0TN4YdI0RO-45">
          <mxGeometry width="50" height="50" relative="1" as="geometry">
            <mxPoint x="-530" y="4850" as="sourcePoint" />
            <mxPoint x="-480" y="4800" as="targetPoint" />
          </mxGeometry>
        </mxCell>
        <mxCell id="JNC51Iq2SX0TN4YdI0RO-48" value="1" style="strokeWidth=2;html=1;shape=mxgraph.flowchart.start_2;whiteSpace=wrap;" vertex="1" parent="1">
          <mxGeometry x="-372" y="3350" width="27" height="30" as="geometry" />
        </mxCell>
        <mxCell id="JNC51Iq2SX0TN4YdI0RO-49" value="2" style="strokeWidth=2;html=1;shape=mxgraph.flowchart.start_2;whiteSpace=wrap;" vertex="1" parent="1">
          <mxGeometry x="-546" y="3580" width="27" height="30" as="geometry" />
        </mxCell>
        <mxCell id="JNC51Iq2SX0TN4YdI0RO-50" value="3" style="strokeWidth=2;html=1;shape=mxgraph.flowchart.start_2;whiteSpace=wrap;" vertex="1" parent="1">
          <mxGeometry x="-345" y="3580" width="27" height="30" as="geometry" />
        </mxCell>
        <mxCell id="JNC51Iq2SX0TN4YdI0RO-51" value="4" style="strokeWidth=2;html=1;shape=mxgraph.flowchart.start_2;whiteSpace=wrap;" vertex="1" parent="1">
          <mxGeometry x="-157" y="3580" width="27" height="30" as="geometry" />
        </mxCell>
        <mxCell id="JNC51Iq2SX0TN4YdI0RO-52" value="&lt;font style=&quot;font-size: 18px;&quot;&gt;API Gateway&lt;/font&gt;" style="text;html=1;align=center;verticalAlign=middle;whiteSpace=wrap;rounded=0;" vertex="1" parent="1">
          <mxGeometry x="-379" y="3450" width="207" height="30" as="geometry" />
        </mxCell>
        <mxCell id="JNC51Iq2SX0TN4YdI0RO-53" value="&lt;font style=&quot;font-size: 18px;&quot;&gt;Microservices&lt;/font&gt;" style="text;html=1;align=center;verticalAlign=middle;whiteSpace=wrap;rounded=0;" vertex="1" parent="1">
          <mxGeometry x="-311" y="4700" width="207" height="30" as="geometry" />
        </mxCell>
        <mxCell id="JNC51Iq2SX0TN4YdI0RO-54" value="5" style="strokeWidth=2;html=1;shape=mxgraph.flowchart.start_2;whiteSpace=wrap;" vertex="1" parent="1">
          <mxGeometry x="-154" y="3710" width="27" height="30" as="geometry" />
        </mxCell>
        <mxCell id="JNC51Iq2SX0TN4YdI0RO-55" value="Orders&lt;br&gt;Collection" style="shape=dataStorage;whiteSpace=wrap;html=1;fixedSize=1;fillColor=#dae8fc;strokeColor=#6c8ebf;" vertex="1" parent="1">
          <mxGeometry x="-553" y="4930" width="113" height="60" as="geometry" />
        </mxCell>
        <mxCell id="JNC51Iq2SX0TN4YdI0RO-56" value="" style="endArrow=classic;html=1;rounded=0;entryX=0.5;entryY=0;entryDx=0;entryDy=0;exitX=0.145;exitY=1;exitDx=0;exitDy=-4.35;exitPerimeter=0;dashed=1;strokeColor=#007FFF;" edge="1" parent="1" source="JNC51Iq2SX0TN4YdI0RO-45" target="JNC51Iq2SX0TN4YdI0RO-55">
          <mxGeometry width="50" height="50" relative="1" as="geometry">
            <mxPoint x="-800" y="4820" as="sourcePoint" />
            <mxPoint x="-750" y="4770" as="targetPoint" />
          </mxGeometry>
        </mxCell>
        <mxCell id="JNC51Iq2SX0TN4YdI0RO-57" value="Payments&lt;br&gt;Collection" style="shape=dataStorage;whiteSpace=wrap;html=1;fixedSize=1;fillColor=#dae8fc;strokeColor=#6c8ebf;" vertex="1" parent="1">
          <mxGeometry x="-421" y="4930" width="113" height="60" as="geometry" />
        </mxCell>
        <mxCell id="JNC51Iq2SX0TN4YdI0RO-58" value="" style="endArrow=classic;html=1;rounded=0;exitX=0.5;exitY=1;exitDx=0;exitDy=0;exitPerimeter=0;dashed=1;strokeColor=#007FFF;entryX=0.323;entryY=-0.025;entryDx=0;entryDy=0;entryPerimeter=0;" edge="1" parent="1" source="JNC51Iq2SX0TN4YdI0RO-45" target="JNC51Iq2SX0TN4YdI0RO-57">
          <mxGeometry width="50" height="50" relative="1" as="geometry">
            <mxPoint x="-397" y="4875" as="sourcePoint" />
            <mxPoint x="-370" y="4920" as="targetPoint" />
          </mxGeometry>
        </mxCell>
        <mxCell id="JNC51Iq2SX0TN4YdI0RO-59" value="" style="endArrow=classic;html=1;rounded=0;entryX=0.5;entryY=0;entryDx=0;entryDy=0;exitX=0.855;exitY=1;exitDx=0;exitDy=-4.35;exitPerimeter=0;dashed=1;strokeColor=#007FFF;" edge="1" parent="1" source="JNC51Iq2SX0TN4YdI0RO-45" target="JNC51Iq2SX0TN4YdI0RO-60">
          <mxGeometry width="50" height="50" relative="1" as="geometry">
            <mxPoint x="-217" y="4860" as="sourcePoint" />
            <mxPoint x="-306" y="4925" as="targetPoint" />
          </mxGeometry>
        </mxCell>
        <mxCell id="JNC51Iq2SX0TN4YdI0RO-60" value="Inventory &lt;br&gt;Collection" style="shape=dataStorage;whiteSpace=wrap;html=1;fixedSize=1;fillColor=#dae8fc;strokeColor=#6c8ebf;" vertex="1" parent="1">
          <mxGeometry x="-286.5" y="4930" width="113" height="60" as="geometry" />
        </mxCell>
        <mxCell id="JNC51Iq2SX0TN4YdI0RO-61" value="6" style="strokeWidth=2;html=1;shape=mxgraph.flowchart.start_2;whiteSpace=wrap;" vertex="1" parent="1">
          <mxGeometry x="-345" y="3710" width="27" height="30" as="geometry" />
        </mxCell>
        <mxCell id="JNC51Iq2SX0TN4YdI0RO-62" value="7" style="strokeWidth=2;html=1;shape=mxgraph.flowchart.start_2;whiteSpace=wrap;" vertex="1" parent="1">
          <mxGeometry x="-546" y="3710" width="27" height="30" as="geometry" />
        </mxCell>
        <mxCell id="JNC51Iq2SX0TN4YdI0RO-63" value="8" style="strokeWidth=2;html=1;shape=mxgraph.flowchart.start_2;whiteSpace=wrap;" vertex="1" parent="1">
          <mxGeometry x="-547.5" y="3840" width="27" height="30" as="geometry" />
        </mxCell>
        <mxCell id="JNC51Iq2SX0TN4YdI0RO-64" value="&lt;h1&gt;API Gateway provide:&amp;nbsp;&lt;/h1&gt;&lt;p style=&quot;font-size: 15px;&quot;&gt;&lt;font style=&quot;font-size: 15px;&quot;&gt;Authentication and security policy enforcements.&amp;nbsp;&lt;/font&gt;&lt;/p&gt;&lt;p style=&quot;font-size: 15px;&quot;&gt;&lt;font style=&quot;font-size: 15px;&quot;&gt;Load balancing and circuit breaking&lt;/font&gt;&lt;/p&gt;&lt;p style=&quot;font-size: 15px;&quot;&gt;&lt;font style=&quot;font-size: 15px;&quot;&gt;Protocol translation and service discovery&lt;/font&gt;&lt;/p&gt;&lt;p style=&quot;font-size: 15px;&quot;&gt;&lt;font style=&quot;font-size: 15px;&quot;&gt;Monitorring logging monitoring analytics and billing&lt;/font&gt;&lt;/p&gt;&lt;p style=&quot;font-size: 15px;&quot;&gt;&lt;font style=&quot;font-size: 15px;&quot;&gt;Cachine.&amp;nbsp;&lt;/font&gt;&lt;/p&gt;" style="text;html=1;strokeColor=none;fillColor=none;spacing=5;spacingTop=-20;whiteSpace=wrap;overflow=hidden;rounded=0;" vertex="1" parent="1">
          <mxGeometry x="210" y="3130" width="280" height="230" as="geometry" />
        </mxCell>
        <mxCell id="JNC51Iq2SX0TN4YdI0RO-65" value="&lt;h1&gt;&lt;span style=&quot;background-color: initial;&quot;&gt;API Gateway steps:&lt;/span&gt;&lt;/h1&gt;&lt;h1 style=&quot;font-size: 15px;&quot;&gt;&lt;font style=&quot;font-size: 15px;&quot;&gt;&lt;span style=&quot;background-color: initial;&quot;&gt;&lt;span style=&quot;font-weight: normal;&quot;&gt;1. Client sends request to the API &lt;/span&gt;&lt;span style=&quot;font-weight: 400;&quot;&gt;Gateway&lt;/span&gt;&lt;span style=&quot;font-weight: normal;&quot;&gt;&amp;nbsp;(HTTP based). Could be REST or GraphQL high level &lt;/span&gt;&lt;span style=&quot;font-weight: 400;&quot;&gt;abstractions&lt;/span&gt;&lt;span style=&quot;font-weight: normal;&quot;&gt;.&amp;nbsp;&lt;/span&gt;&lt;/span&gt;&lt;br&gt;&lt;/font&gt;&lt;/h1&gt;&lt;p style=&quot;font-size: 15px;&quot;&gt;&lt;font style=&quot;font-size: 15px;&quot;&gt;2. Validate HTTP Request.&amp;nbsp;&lt;/font&gt;&lt;/p&gt;&lt;p style=&quot;&quot;&gt;&lt;span style=&quot;background-color: initial;&quot;&gt;&lt;span style=&quot;font-size: 15px;&quot;&gt;3. Check headers for allow/deny lists. Can also check IP address and HTTP headers. For example can reject&amp;nbsp;request with certain&amp;nbsp;rate.&amp;nbsp;&lt;/span&gt;&lt;/span&gt;&lt;/p&gt;&lt;p style=&quot;font-size: 15px;&quot;&gt;&lt;font style=&quot;font-size: 15px;&quot;&gt;4. Pass request to the IDP for authentication and authorization.&amp;nbsp;&lt;/font&gt;&lt;/p&gt;&lt;p style=&quot;font-size: 15px;&quot;&gt;&lt;font style=&quot;font-size: 15px;&quot;&gt;5. Rate limit check against authenticated session. In case it is over the limit the request rejected at this point.&amp;nbsp;&amp;nbsp;&lt;/font&gt;&lt;/p&gt;&lt;p style=&quot;font-size: 15px;&quot;&gt;&lt;font style=&quot;font-size: 15px;&quot;&gt;6, 7. Check route and discovery to route to the appropriate service component by path matching.&amp;nbsp;&lt;/font&gt;&lt;/p&gt;&lt;p style=&quot;font-size: 15px;&quot;&gt;&lt;font style=&quot;font-size: 15px;&quot;&gt;8. Transform request to the appropriate protocol, cold be gRPC, that respond to the client.&amp;nbsp;&lt;/font&gt;&lt;/p&gt;&lt;p style=&quot;font-size: 15px;&quot;&gt;&lt;br&gt;&lt;/p&gt;&lt;p style=&quot;font-size: 15px;&quot;&gt;Circuit breaking functionality protects services from overloading.&amp;nbsp;&lt;/p&gt;" style="text;html=1;strokeColor=none;fillColor=none;spacing=5;spacingTop=-20;whiteSpace=wrap;overflow=hidden;rounded=0;" vertex="1" parent="1">
          <mxGeometry x="210" y="3600" width="320" height="570" as="geometry" />
        </mxCell>
        <mxCell id="JNC51Iq2SX0TN4YdI0RO-66" value="" style="rounded=1;whiteSpace=wrap;html=1;dashed=1;" vertex="1" parent="1">
          <mxGeometry x="150" y="4220" width="280" height="470" as="geometry" />
        </mxCell>
        <mxCell id="JNC51Iq2SX0TN4YdI0RO-67" value="REST API" style="swimlane;whiteSpace=wrap;html=1;fillColor=#dae8fc;strokeColor=#6c8ebf;" vertex="1" parent="1">
          <mxGeometry x="230" y="4260" width="146" height="140" as="geometry" />
        </mxCell>
        <mxCell id="JNC51Iq2SX0TN4YdI0RO-68" value="Coffee Shops&lt;br&gt;Service" style="text;html=1;strokeColor=none;fillColor=none;align=center;verticalAlign=middle;whiteSpace=wrap;rounded=0;" vertex="1" parent="JNC51Iq2SX0TN4YdI0RO-67">
          <mxGeometry x="-4" y="70" width="135" height="30" as="geometry" />
        </mxCell>
        <mxCell id="JNC51Iq2SX0TN4YdI0RO-69" value="REST API" style="swimlane;whiteSpace=wrap;html=1;fillColor=#dae8fc;strokeColor=#6c8ebf;" vertex="1" parent="1">
          <mxGeometry x="230" y="4430" width="146" height="140" as="geometry" />
        </mxCell>
        <mxCell id="JNC51Iq2SX0TN4YdI0RO-70" value="Coffeeshop Domain" style="text;html=1;strokeColor=none;fillColor=none;align=center;verticalAlign=middle;whiteSpace=wrap;rounded=0;" vertex="1" parent="1">
          <mxGeometry x="224" y="4646" width="135" height="30" as="geometry" />
        </mxCell>
        <mxCell id="JNC51Iq2SX0TN4YdI0RO-71" value="Menues &lt;br&gt;Service" style="text;html=1;strokeColor=none;fillColor=none;align=center;verticalAlign=middle;whiteSpace=wrap;rounded=0;" vertex="1" parent="1">
          <mxGeometry x="230" y="4485" width="135" height="30" as="geometry" />
        </mxCell>
        <mxCell id="JNC51Iq2SX0TN4YdI0RO-72" value="DB Coffe Shop" style="shape=cylinder3;whiteSpace=wrap;html=1;boundedLbl=1;backgroundOutline=1;size=15;fillColor=#d5e8d4;strokeColor=#82b366;" vertex="1" parent="1">
          <mxGeometry x="261.5" y="4789" width="60" height="80" as="geometry" />
        </mxCell>
        <mxCell id="JNC51Iq2SX0TN4YdI0RO-73" value="" style="endArrow=classic;html=1;rounded=0;exitX=0.5;exitY=1;exitDx=0;exitDy=0;entryX=0.5;entryY=0;entryDx=0;entryDy=0;entryPerimeter=0;" edge="1" parent="1" source="JNC51Iq2SX0TN4YdI0RO-66" target="JNC51Iq2SX0TN4YdI0RO-72">
          <mxGeometry width="50" height="50" relative="1" as="geometry">
            <mxPoint x="320" y="4700" as="sourcePoint" />
            <mxPoint x="310" y="4780" as="targetPoint" />
          </mxGeometry>
        </mxCell>
        <mxCell id="JNC51Iq2SX0TN4YdI0RO-74" value="Menues &lt;br&gt;Collection" style="shape=dataStorage;whiteSpace=wrap;html=1;fixedSize=1;fillColor=#dae8fc;strokeColor=#6c8ebf;" vertex="1" parent="1">
          <mxGeometry x="197" y="4950" width="113" height="60" as="geometry" />
        </mxCell>
        <mxCell id="JNC51Iq2SX0TN4YdI0RO-75" value="Coffee Shops&lt;br&gt;Collection" style="shape=dataStorage;whiteSpace=wrap;html=1;fixedSize=1;fillColor=#dae8fc;strokeColor=#6c8ebf;" vertex="1" parent="1">
          <mxGeometry x="340" y="4950" width="113" height="60" as="geometry" />
        </mxCell>
        <mxCell id="JNC51Iq2SX0TN4YdI0RO-76" value="" style="endArrow=classic;html=1;rounded=0;dashed=1;strokeColor=#007FFF;entryX=0.5;entryY=0;entryDx=0;entryDy=0;exitX=0.5;exitY=1;exitDx=0;exitDy=0;exitPerimeter=0;" edge="1" parent="1" source="JNC51Iq2SX0TN4YdI0RO-72" target="JNC51Iq2SX0TN4YdI0RO-75">
          <mxGeometry width="50" height="50" relative="1" as="geometry">
            <mxPoint x="278" y="4900" as="sourcePoint" />
            <mxPoint x="293" y="4951" as="targetPoint" />
          </mxGeometry>
        </mxCell>
        <mxCell id="JNC51Iq2SX0TN4YdI0RO-77" value="" style="endArrow=classic;html=1;rounded=0;dashed=1;strokeColor=#007FFF;entryX=0.5;entryY=0;entryDx=0;entryDy=0;exitX=0.5;exitY=1;exitDx=0;exitDy=0;exitPerimeter=0;" edge="1" parent="1" source="JNC51Iq2SX0TN4YdI0RO-72" target="JNC51Iq2SX0TN4YdI0RO-74">
          <mxGeometry width="50" height="50" relative="1" as="geometry">
            <mxPoint x="302" y="4879" as="sourcePoint" />
            <mxPoint x="432" y="4960" as="targetPoint" />
          </mxGeometry>
        </mxCell>
      </root>
    </mxGraphModel>
  </diagram>
</mxfile>
